HIERARCHY
ROOT Hips
{
	OFFSET -3.958830 18.904000 13.208200
	CHANNELS 6 Xposition Yposition Zposition Zrotation Yrotation Xrotation 
	JOINT LHipJoint
	{
		OFFSET 0.000000 0.000000 0.000000
		CHANNELS 3 Zrotation Yrotation Xrotation
		JOINT LeftUpLeg
		{
			OFFSET 1.800000 -1.400000 0.085000
			CHANNELS 3 Zrotation Yrotation Xrotation
			JOINT LeftLeg
			{
				OFFSET 2.215000 -6.000000 0.000000
				CHANNELS 3 Zrotation Yrotation Xrotation
				JOINT LeftFoot
				{
					OFFSET 2.500000 -6.900000 0.000000
					CHANNELS 3 Zrotation Yrotation Xrotation
					JOINT LeftToeBase
					{
						OFFSET 0.200000 -0.500000 1.950000
						CHANNELS 3 Zrotation Yrotation Xrotation
						End Site
						{
							OFFSET 0.000000 0.000000 0.000000
						}
					}
				}
			}
		}
	}
	JOINT RHipJoint
	{
		OFFSET 0.000000 0.000000 0.000000
		CHANNELS 3 Zrotation Yrotation Xrotation
		JOINT RightUpLeg
		{
			OFFSET -1.800000 -1.400000 0.085000
			CHANNELS 3 Zrotation Yrotation Xrotation
			JOINT RightLeg
			{
				OFFSET -2.215000 -6.000000 0.000000
				CHANNELS 3 Zrotation Yrotation Xrotation
				JOINT RightFoot
				{
					OFFSET -2.500000 -6.900000 0.000000
					CHANNELS 3 Zrotation Yrotation Xrotation
					JOINT RightToeBase
					{
						OFFSET -0.200000 -0.500000 1.950000
						CHANNELS 3 Zrotation Yrotation Xrotation
						End Site
						{
							OFFSET 0.000000 0.000000 0.000000
						}
					}
				}
			}
		}
	}
	JOINT LowerBack
	{
		OFFSET 0.000000 0.000000 0.000000
		CHANNELS 3 Zrotation Yrotation Xrotation
		JOINT Spine
		{
			OFFSET -0.087000 1.940000 -0.288900
			CHANNELS 3 Zrotation Yrotation Xrotation
			JOINT Spine1
			{
				OFFSET 0.000000 1.950000 0.060000
				CHANNELS 3 Zrotation Yrotation Xrotation
				JOINT Neck
				{
					OFFSET 0.000000 0.000000 0.000000
					CHANNELS 3 Zrotation Yrotation Xrotation
					JOINT Neck1
					{
						OFFSET 0.000000 1.600000 0.340000
						CHANNELS 3 Zrotation Yrotation Xrotation
						JOINT Head
						{
							OFFSET 0.000000 1.667000 -0.240000
							CHANNELS 3 Zrotation Yrotation Xrotation
							End Site
							{
								OFFSET 0.000000 0.000000 0.000000
							}
						}
					}
				}
				JOINT LeftShoulder
				{
					OFFSET 0.000000 0.000000 0.000000
					CHANNELS 3 Zrotation Yrotation Xrotation
					JOINT LeftArm
					{
						OFFSET 2.700000 1.550000 -0.730000
						CHANNELS 3 Zrotation Yrotation Xrotation
						JOINT LeftForeArm
						{
							OFFSET 5.450000 0.000000 0.000000
							CHANNELS 3 Zrotation Yrotation Xrotation
							JOINT LeftHand
							{
								OFFSET 3.450000 0.000000 0.000000
								CHANNELS 3 Zrotation Yrotation Xrotation
								JOINT LeftHandIndex1
								{
									OFFSET 0.750000 0.000000 0.000000
									CHANNELS 3 Zrotation Yrotation Xrotation
									End Site
									{
										OFFSET 0.000000 0.000000 0.000000
									}
								}
							}
						}
					}
				}
				JOINT RightShoulder
				{
					OFFSET 0.000000 0.000000 0.000000
					CHANNELS 3 Zrotation Yrotation Xrotation
					JOINT RightArm
					{
						OFFSET -2.700000 1.550000 -0.730000
						CHANNELS 3 Zrotation Yrotation Xrotation
						JOINT RightForeArm
						{
							OFFSET -5.450000 0.000000 0.000000
							CHANNELS 3 Zrotation Yrotation Xrotation
							JOINT RightHand
							{
								OFFSET -3.450000 0.000000 0.000000
								CHANNELS 3 Zrotation Yrotation Xrotation
								JOINT RightHandIndex1
								{
									OFFSET -0.750000 0.000000 0.000000
									CHANNELS 3 Zrotation Yrotation Xrotation
									End Site
									{
										OFFSET 0.000000 0.000000 0.000000
									}
								}
							}
						}
					}
				}
			}
		}
	}
}
MOTION
Frames: 4
Frame Time: 0.016667
-1.938270 16.198390 -5.272990 -176.641329 81.775586 -179.230312 -15.506077 13.384748 3.193668 -1.584390 1.284980 0.506877 -6.857968 6.138826 10.491400 0.327099 4.263620 3.125386 -0.027220 -0.139780 0.008860 17.883156 -10.698451 3.273059 -1.004265 2.225501 -26.520674 5.835117 -2.966934 8.597832 0.254073 -1.772222 3.690448 -0.096500 0.058050 0.008590 -3.600285 -1.607606 -7.405831 4.079855 -2.285646 10.098536 0.104997 -1.998437 2.928678 1.769942 0.630082 -7.589352 -2.245347 -0.075489 69.786170 -0.594220 -2.435920 16.184000 -27.525240 -2.868030 1.348298 -48.643762 -0.512594 -5.535138 -6.869721 -10.429965 -0.410481 -3.800520 2.917425 0.031390 0.041920 -0.050940 0.009710 25.745036 3.435387 1.853126 51.710834 4.445385 -6.369909 8.211287 21.122854 0.068677 2.704357 -1.241979 -0.018340 -0.034090 0.022710 -0.006290 
-1.914070 16.193380 -5.271330 -177.512678 81.626193 179.820720 -15.513555 13.421340 3.183262 -1.483990 1.268254 0.532810 -6.806785 6.234938 11.087245 0.344377 4.301001 3.114598 -0.028820 -0.137640 0.002760 17.872170 -10.660591 3.305768 -0.949584 2.267248 -26.645505 5.969537 -2.887476 8.017909 0.256713 -1.736763 3.709638 -0.098970 0.061000 0.000760 -3.537063 -1.688161 -7.434824 3.746842 -2.408200 10.215317 0.265813 -2.126954 2.779482 1.722418 0.541032 -7.818823 -2.456326 0.281622 70.203735 -0.214740 -2.385930 16.563260 -27.765321 -3.349351 1.608731 -48.808104 -0.044571 -5.470663 -6.493592 -9.198356 -0.459957 -3.796349 2.911996 0.031140 0.038330 -0.050600 0.015720 26.113844 4.002005 1.983565 51.339920 4.436784 -6.257120 7.728028 20.283494 -0.012627 2.716389 -1.235938 -0.018970 -0.030950 0.017820 -0.001230 
-1.873640 16.186830 -5.274260 -179.664791 81.590377 177.540450 -15.535945 13.432097 3.184321 -1.614752 1.300749 0.756285 -6.735976 6.330092 11.697414 0.356900 4.354260 3.090420 -0.024020 -0.135730 0.006560 17.850105 -10.645522 3.325087 -0.838979 2.282061 -26.972654 5.646984 -2.765404 7.613608 0.259990 -1.675922 3.727167 -0.100090 0.053460 0.002550 -3.518966 -1.669634 -7.446725 3.586377 -2.096941 10.321587 0.627350 -1.794027 2.693859 1.665427 0.629732 -7.929717 -2.368722 -0.035702 70.654465 0.028650 -2.842050 16.522900 -27.655494 -3.423871 1.575165 -49.262403 -0.276840 -5.645208 -6.455452 -9.994302 -0.461927 -3.786256 2.914813 0.037910 0.029220 -0.043780 0.014160 26.145039 4.151630 2.147744 51.222281 3.942572 -6.277739 7.143065 19.184109 -0.115088 2.725675 -1.226607 -0.014500 -0.033100 0.017700 -0.001350 
-1.827330 16.162570 -5.281500 179.209448 81.445948 176.279789 -15.540644 13.450174 3.186646 -1.589806 1.265763 0.845983 -6.876562 6.515967 12.602989 0.364914 4.439589 3.056348 -0.015720 -0.125950 0.016130 17.838710 -10.631204 3.368799 -0.544361 2.336977 -27.351744 5.350766 -2.631109 7.085283 0.260177 -1.603215 3.752618 -0.095080 0.044360 0.001870 -3.505272 -1.669930 -7.498651 3.563537 -1.938786 10.616575 0.690181 -1.591654 2.385125 1.737893 0.857423 -8.082156 -1.913366 -0.459889 70.237179 0.198200 -3.041910 15.836620 -27.926974 -3.972747 1.600056 -49.200067 -0.393803 -5.369006 -6.738152 -8.421731 -0.482997 -3.789394 2.901789 0.050450 0.020930 -0.033100 0.012020 26.260494 4.576230 2.379316 50.961223 3.366463 -5.974099 7.360447 16.764857 -0.112911 2.742078 -1.208159 -0.014600 -0.027160 0.015220 -0.005740 
